ffmpeg started on 2025-05-02 at 14:08:39
Report written to "D:\Convert\FFMetrics\reports\psnr_report-6.txt"
Log level: 32
Command line:
ffmpeg -hide_banner -nostdin -i "G:\\\xc0\xed\xe8\xec\xe5\\\xce\xed\xe3\xee\xe8\xed\xe3\xe8\\!_35_\xcb\xe5\xf2\xee_2024\\JamClub\\\xcf\xee\xf7\xe5\xec\xf3 \xe2\xf1\xe5 \xe7\xe0\xe1\xfb\xeb\xe8 \xec\xee\xe9 \xec\xe8\xf0\\JamClub_Naze_Boku_no_Sekai_o_Dare_mo_Oboeteinai_no_ka_03_1080p_HEVC.mkv" -i "G:\\\xc0\xed\xe8\xec\xe5\\\xce\xed\xe3\xee\xe8\xed\xe3\xe8\\!_35_\xcb\xe5\xf2\xee_2024\\JamClub\\\xcf\xee\xf7\xe5\xec\xf3 \xe2\xf1\xe5 \xe7\xe0\xe1\xfb\xeb\xe8 \xec\xee\xe9 \xec\xe8\xf0\\JamClub_Naze_Boku_no_Sekai_o_Dare_mo_Oboeteinai_no_ka_03_1080p.mp4" -lavfi "[0:v]settb=AVTB,setpts=PTS-STARTPTS,format=pix_fmts=yuv420p10,fps=24000/1001,scale=1920:1080:flags=bicubic[main];[1:v]settb=AVTB,setpts=PTS-STARTPTS,format=pix_fmts=yuv420p,fps=24000/1001,scale=1920:1080:flags=bicubic[ref];[main][ref]psnr=eof_action=endall:stats_file='D\\:/Convert/FFMetrics/logs/psnr_logfile-6.txt'" -f null -
Input #0, matroska,webm, from 'G:\Аниме\Онгоинги\!_35_Лето_2024\JamClub\Почему все забыли мой мир\JamClub_Naze_Boku_no_Sekai_o_Dare_mo_Oboeteinai_no_ka_03_1080p_HEVC.mkv':
  Metadata:
    COMPATIBLE_BRANDS: isomiso2avc1mp41
    MAJOR_BRAND     : isom
    MINOR_VERSION   : 512
    ENCODER         : Lavf61.7.100
  Duration: 00:24:02.33, start: -0.001000, bitrate: 1661 kb/s
  Stream #0:0: Video: hevc (Main 10), yuv420p10le(tv, bt709, progressive), 1920x1080 [SAR 1:1 DAR 16:9], 23.98 fps, 23.98 tbr, 1k tbn (default)
      Metadata:
        HANDLER_NAME    : VideoHandler
        VENDOR_ID       : [0][0][0][0]
        ENCODER         : Lavc61.19.100 libx265
        BPS             : 1464096
        DURATION        : 00:24:02.190708333
        NUMBER_OF_FRAMES: 34578
        NUMBER_OF_BYTES : 263938103
        _STATISTICS_WRITING_APP: mkvpropedit v66.0.0 ('Josie') 64-bit
        _STATISTICS_WRITING_DATE_UTC: 2025-04-30 11:19:28
        _STATISTICS_TAGS: BPS DURATION NUMBER_OF_FRAMES NUMBER_OF_BYTES
  Stream #0:1(eng): Audio: aac (LC), 48000 Hz, stereo, fltp (default)
      Metadata:
        HANDLER_NAME    : SoundHandler
        VENDOR_ID       : [0][0][0][0]
        ENCODER         : Lavc61.19.100 aac
        BPS             : 193749
        DURATION        : 00:24:02.285000000
        NUMBER_OF_FRAMES: 67608
        NUMBER_OF_BYTES : 34930209
        _STATISTICS_WRITING_APP: mkvpropedit v66.0.0 ('Josie') 64-bit
        _STATISTICS_WRITING_DATE_UTC: 2025-04-30 11:19:28
        _STATISTICS_TAGS: BPS DURATION NUMBER_OF_FRAMES NUMBER_OF_BYTES
Input #1, mov,mp4,m4a,3gp,3g2,mj2, from 'G:\Аниме\Онгоинги\!_35_Лето_2024\JamClub\Почему все забыли мой мир\JamClub_Naze_Boku_no_Sekai_o_Dare_mo_Oboeteinai_no_ka_03_1080p.mp4':
  Metadata:
    major_brand     : isom
    minor_version   : 512
    compatible_brands: isomiso2avc1mp41
    encoder         : Lavf60.16.100
  Duration: 00:24:02.31, start: 0.000000, bitrate: 5108 kb/s
  Stream #1:0[0x1](und): Video: h264 (High) (avc1 / 0x31637661), yuv420p(progressive), 1920x1080 [SAR 1:1 DAR 16:9], 4910 kb/s, 23.98 fps, 23.98 tbr, 90k tbn (default)
      Metadata:
        handler_name    : VideoHandler
        vendor_id       : [0][0][0][0]
  Stream #1:1[0x2](eng): Audio: aac (LC) (mp4a / 0x6134706D), 48000 Hz, stereo, fltp, 191 kb/s (default)
      Metadata:
        handler_name    : SoundHandler
        vendor_id       : [0][0][0][0]
Stream mapping:
  Stream #0:0 (hevc) -> settb:default
  Stream #1:0 (h264) -> settb:default
  psnr:default -> Stream #0:0 (wrapped_avframe)
  Stream #0:1 -> #0:1 (aac (native) -> pcm_s16le (native))
Output #0, null, to 'pipe:':
  Metadata:
    COMPATIBLE_BRANDS: isomiso2avc1mp41
    MAJOR_BRAND     : isom
    MINOR_VERSION   : 512
    encoder         : Lavf61.7.100
  Stream #0:0: Video: wrapped_avframe, yuv420p10le(tv, bt709, progressive), 1920x1080 [SAR 1:1 DAR 16:9], q=2-31, 200 kb/s, 23.98 fps, 23.98 tbn
      Metadata:
        encoder         : Lavc61.19.100 wrapped_avframe
  Stream #0:1(eng): Audio: pcm_s16le, 48000 Hz, stereo, s16, 1536 kb/s (default)
      Metadata:
        HANDLER_NAME    : SoundHandler
        VENDOR_ID       : [0][0][0][0]
        _STATISTICS_TAGS: BPS DURATION NUMBER_OF_FRAMES NUMBER_OF_BYTES
        BPS             : 193749
        DURATION        : 00:24:02.285000000
        NUMBER_OF_FRAMES: 67608
        NUMBER_OF_BYTES : 34930209
        _STATISTICS_WRITING_APP: mkvpropedit v66.0.0 ('Josie') 64-bit
        _STATISTICS_WRITING_DATE_UTC: 2025-04-30 11:19:28
        encoder         : Lavc61.19.100 pcm_s16le
frame=  115 fps=0.0 q=-0.0 size=N/A time=00:00:04.79 bitrate=N/A speed=9.33x    frame=  282 fps=271 q=-0.0 size=N/A time=00:00:11.76 bitrate=N/A speed=11.3x    frame=  472 fps=305 q=-0.0 size=N/A time=00:00:19.68 bitrate=N/A speed=12.7x    frame=  720 fps=350 q=-0.0 size=N/A time=00:00:30.03 bitrate=N/A speed=14.6x    frame=  982 fps=380 q=-0.0 size=N/A time=00:00:40.95 bitrate=N/A speed=15.9x    frame= 1242 fps=402 q=-0.0 size=N/A time=00:00:51.80 bitrate=N/A speed=16.8x    frame= 1519 fps=420 q=-0.0 size=N/A time=00:01:03.35 bitrate=N/A speed=17.5x    frame= 1712 fps=415 q=-0.0 size=N/A time=00:01:11.40 bitrate=N/A speed=17.3x    frame= 1888 fps=406 q=-0.0 size=N/A time=00:01:18.74 bitrate=N/A speed=16.9x    frame= 2076 fps=402 q=-0.0 size=N/A time=00:01:26.58 bitrate=N/A speed=16.8x    frame= 2290 fps=404 q=-0.0 size=N/A time=00:01:35.51 bitrate=N/A speed=16.8x    frame= 2475 fps=400 q=-0.0 size=N/A time=00:01:43.22 bitrate=N/A speed=16.7x    frame= 2684 fps=400 q=-0.0 size=N/A time=00:01:51.94 bitrate=N/A speed=16.7x    frame= 2874 fps=398 q=-0.0 size=N/A time=00:01:59.86 bitrate=N/A speed=16.6x    frame= 3051 fps=394 q=-0.0 size=N/A time=00:02:07.25 bitrate=N/A speed=16.4x    frame= 3243 fps=393 q=-0.0 size=N/A time=00:02:15.26 bitrate=N/A speed=16.4x    frame= 3416 fps=389 q=-0.0 size=N/A time=00:02:22.47 bitrate=N/A speed=16.2x    frame= 3598 fps=387 q=-0.0 size=N/A time=00:02:30.06 bitrate=N/A speed=16.2x    frame= 3806 fps=389 q=-0.0 size=N/A time=00:02:38.74 bitrate=N/A speed=16.2x    frame= 4031 fps=391 q=-0.0 size=N/A time=00:02:48.12 bitrate=N/A speed=16.3x    frame= 4285 fps=396 q=-0.0 size=N/A time=00:02:58.72 bitrate=N/A speed=16.5x    frame= 4531 fps=399 q=-0.0 size=N/A time=00:03:08.98 bitrate=N/A speed=16.7x    frame= 4803 fps=405 q=-0.0 size=N/A time=00:03:20.32 bitrate=N/A speed=16.9x    frame= 5052 fps=408 q=-0.0 size=N/A time=00:03:30.71 bitrate=N/A speed=  17x    frame= 5307 fps=411 q=-0.0 size=N/A time=00:03:41.34 bitrate=N/A speed=17.2x    frame= 5545 fps=414 q=-0.0 size=N/A time=00:03:51.27 bitrate=N/A speed=17.3x    frame= 5816 fps=418 q=-0.0 size=N/A time=00:04:02.57 bitrate=N/A speed=17.4x    frame= 6069 fps=420 q=-0.0 size=N/A time=00:04:13.12 bitrate=N/A speed=17.5x    frame= 6332 fps=423 q=-0.0 size=N/A time=00:04:24.09 bitrate=N/A speed=17.7x    frame= 6582 fps=426 q=-0.0 size=N/A time=00:04:34.52 bitrate=N/A speed=17.7x    frame= 6836 fps=428 q=-0.0 size=N/A time=00:04:45.11 bitrate=N/A speed=17.8x    frame= 7063 fps=428 q=-0.0 size=N/A time=00:04:54.58 bitrate=N/A speed=17.9x    frame= 7295 fps=429 q=-0.0 size=N/A time=00:05:04.26 bitrate=N/A speed=17.9x    frame= 7520 fps=429 q=-0.0 size=N/A time=00:05:13.64 bitrate=N/A speed=17.9x    frame= 7778 fps=431 q=-0.0 size=N/A time=00:05:24.40 bitrate=N/A speed=  18x    frame= 8018 fps=432 q=-0.0 size=N/A time=00:05:34.41 bitrate=N/A speed=  18x    frame= 8204 fps=430 q=-0.0 size=N/A time=00:05:42.17 bitrate=N/A speed=17.9x    frame= 8407 fps=429 q=-0.0 size=N/A time=00:05:50.64 bitrate=N/A speed=17.9x    frame= 8614 fps=428 q=-0.0 size=N/A time=00:05:59.27 bitrate=N/A speed=17.9x    frame= 8816 fps=428 q=-0.0 size=N/A time=00:06:07.70 bitrate=N/A speed=17.8x    frame= 9016 fps=426 q=-0.0 size=N/A time=00:06:16.04 bitrate=N/A speed=17.8x    frame= 9216 fps=425 q=-0.0 size=N/A time=00:06:24.38 bitrate=N/A speed=17.7x    frame= 9421 fps=425 q=-0.0 size=N/A time=00:06:32.93 bitrate=N/A speed=17.7x    frame= 9629 fps=424 q=-0.0 size=N/A time=00:06:41.60 bitrate=N/A speed=17.7x    frame= 9894 fps=426 q=-0.0 size=N/A time=00:06:52.66 bitrate=N/A speed=17.8x    frame=10142 fps=427 q=-0.0 size=N/A time=00:07:03.00 bitrate=N/A speed=17.8x    frame=10391 fps=429 q=-0.0 size=N/A time=00:07:13.39 bitrate=N/A speed=17.9x    frame=10618 fps=429 q=-0.0 size=N/A time=00:07:22.85 bitrate=N/A speed=17.9x    frame=10850 fps=429 q=-0.0 size=N/A time=00:07:32.53 bitrate=N/A speed=17.9x    frame=11049 fps=429 q=-0.0 size=N/A time=00:07:40.83 bitrate=N/A speed=17.9x    frame=11225 fps=427 q=-0.0 size=N/A time=00:07:48.17 bitrate=N/A speed=17.8x    frame=11446 fps=427 q=-0.0 size=N/A time=00:07:57.39 bitrate=N/A speed=17.8x    frame=11678 fps=427 q=-0.0 size=N/A time=00:08:07.06 bitrate=N/A speed=17.8x    frame=11885 fps=427 q=-0.0 size=N/A time=00:08:15.70 bitrate=N/A speed=17.8x    frame=12109 fps=427 q=-0.0 size=N/A time=00:08:25.04 bitrate=N/A speed=17.8x    frame=12365 fps=428 q=-0.0 size=N/A time=00:08:35.72 bitrate=N/A speed=17.9x    frame=12605 fps=429 q=-0.0 size=N/A time=00:08:45.73 bitrate=N/A speed=17.9x    frame=12860 fps=430 q=-0.0 size=N/A time=00:08:56.36 bitrate=N/A speed=17.9x    frame=13072 fps=430 q=-0.0 size=N/A time=00:09:05.21 bitrate=N/A speed=17.9x    frame=13292 fps=430 q=-0.0 size=N/A time=00:09:14.38 bitrate=N/A speed=17.9x    frame=13553 fps=431 q=-0.0 size=N/A time=00:09:25.27 bitrate=N/A speed=  18x    frame=13810 fps=432 q=-0.0 size=N/A time=00:09:35.99 bitrate=N/A speed=  18x    frame=14061 fps=433 q=-0.0 size=N/A time=00:09:46.46 bitrate=N/A speed=18.1x    frame=14314 fps=434 q=-0.0 size=N/A time=00:09:57.01 bitrate=N/A speed=18.1x    frame=14574 fps=435 q=-0.0 size=N/A time=00:10:07.85 bitrate=N/A speed=18.1x    frame=14834 fps=436 q=-0.0 size=N/A time=00:10:18.70 bitrate=N/A speed=18.2x    frame=15059 fps=436 q=-0.0 size=N/A time=00:10:28.08 bitrate=N/A speed=18.2x    frame=15247 fps=435 q=-0.0 size=N/A time=00:10:35.92 bitrate=N/A speed=18.1x    frame=15448 fps=434 q=-0.0 size=N/A time=00:10:44.31 bitrate=N/A speed=18.1x    frame=15708 fps=435 q=-0.0 size=N/A time=00:10:55.15 bitrate=N/A speed=18.1x    frame=15988 fps=437 q=-0.0 size=N/A time=00:11:06.83 bitrate=N/A speed=18.2x    frame=16260 fps=438 q=-0.0 size=N/A time=00:11:18.17 bitrate=N/A speed=18.3x    frame=16533 fps=439 q=-0.0 size=N/A time=00:11:29.56 bitrate=N/A speed=18.3x    frame=16808 fps=440 q=-0.0 size=N/A time=00:11:41.03 bitrate=N/A speed=18.4x    frame=17056 fps=441 q=-0.0 size=N/A time=00:11:51.37 bitrate=N/A speed=18.4x    frame=17343 fps=443 q=-0.0 size=N/A time=00:12:03.34 bitrate=N/A speed=18.5x    frame=17601 fps=443 q=-0.0 size=N/A time=00:12:14.10 bitrate=N/A speed=18.5x    frame=17864 fps=444 q=-0.0 size=N/A time=00:12:25.07 bitrate=N/A speed=18.5x    frame=18067 fps=443 q=-0.0 size=N/A time=00:12:33.54 bitrate=N/A speed=18.5x    frame=18279 fps=443 q=-0.0 size=N/A time=00:12:42.38 bitrate=N/A speed=18.5x    frame=18486 fps=442 q=-0.0 size=N/A time=00:12:51.02 bitrate=N/A speed=18.5x    frame=18729 fps=443 q=-0.0 size=N/A time=00:13:01.15 bitrate=N/A speed=18.5x    frame=18966 fps=443 q=-0.0 size=N/A time=00:13:11.04 bitrate=N/A speed=18.5x    frame=19197 fps=443 q=-0.0 size=N/A time=00:13:20.67 bitrate=N/A speed=18.5x    frame=19385 fps=442 q=-0.0 size=N/A time=00:13:28.51 bitrate=N/A speed=18.4x    frame=19632 fps=442 q=-0.0 size=N/A time=00:13:38.81 bitrate=N/A speed=18.5x    frame=19883 fps=443 q=-0.0 size=N/A time=00:13:49.28 bitrate=N/A speed=18.5x    frame=20114 fps=443 q=-0.0 size=N/A time=00:13:58.92 bitrate=N/A speed=18.5x    frame=20336 fps=443 q=-0.0 size=N/A time=00:14:08.18 bitrate=N/A speed=18.5x    frame=20555 fps=443 q=-0.0 size=N/A time=00:14:17.31 bitrate=N/A speed=18.5x    frame=20749 fps=442 q=-0.0 size=N/A time=00:14:25.40 bitrate=N/A speed=18.4x    frame=20955 fps=441 q=-0.0 size=N/A time=00:14:33.99 bitrate=N/A speed=18.4x    frame=21144 fps=441 q=-0.0 size=N/A time=00:14:41.88 bitrate=N/A speed=18.4x    frame=21378 fps=441 q=-0.0 size=N/A time=00:14:51.64 bitrate=N/A speed=18.4x    frame=21642 fps=442 q=-0.0 size=N/A time=00:15:02.65 bitrate=N/A speed=18.4x    frame=21917 fps=442 q=-0.0 size=N/A time=00:15:14.12 bitrate=N/A speed=18.5x    frame=22145 fps=442 q=-0.0 size=N/A time=00:15:23.63 bitrate=N/A speed=18.5x    frame=22374 fps=442 q=-0.0 size=N/A time=00:15:33.18 bitrate=N/A speed=18.5x    frame=22645 fps=443 q=-0.0 size=N/A time=00:15:44.48 bitrate=N/A speed=18.5x    frame=22896 fps=444 q=-0.0 size=N/A time=00:15:54.95 bitrate=N/A speed=18.5x    frame=23121 fps=444 q=-0.0 size=N/A time=00:16:04.33 bitrate=N/A speed=18.5x    frame=23380 fps=444 q=-0.0 size=N/A time=00:16:15.14 bitrate=N/A speed=18.5x    frame=23630 fps=445 q=-0.0 size=N/A time=00:16:25.56 bitrate=N/A speed=18.5x    frame=23899 fps=445 q=-0.0 size=N/A time=00:16:36.78 bitrate=N/A speed=18.6x    frame=24133 fps=445 q=-0.0 size=N/A time=00:16:46.54 bitrate=N/A speed=18.6x    frame=24399 fps=446 q=-0.0 size=N/A time=00:16:57.64 bitrate=N/A speed=18.6x    frame=24644 fps=446 q=-0.0 size=N/A time=00:17:07.86 bitrate=N/A speed=18.6x    frame=24892 fps=447 q=-0.0 size=N/A time=00:17:18.20 bitrate=N/A speed=18.6x    frame=25145 fps=447 q=-0.0 size=N/A time=00:17:28.75 bitrate=N/A speed=18.6x    frame=25413 fps=448 q=-0.0 size=N/A time=00:17:39.93 bitrate=N/A speed=18.7x    frame=25646 fps=448 q=-0.0 size=N/A time=00:17:49.65 bitrate=N/A speed=18.7x    frame=25842 fps=447 q=-0.0 size=N/A time=00:17:57.82 bitrate=N/A speed=18.6x    frame=26067 fps=447 q=-0.0 size=N/A time=00:18:07.21 bitrate=N/A speed=18.6x    frame=26318 fps=447 q=-0.0 size=N/A time=00:18:17.67 bitrate=N/A speed=18.7x    frame=26545 fps=447 q=-0.0 size=N/A time=00:18:27.14 bitrate=N/A speed=18.7x    frame=26742 fps=447 q=-0.0 size=N/A time=00:18:35.36 bitrate=N/A speed=18.6x    frame=26974 fps=447 q=-0.0 size=N/A time=00:18:45.04 bitrate=N/A speed=18.6x    frame=27197 fps=447 q=-0.0 size=N/A time=00:18:54.34 bitrate=N/A speed=18.6x    frame=27401 fps=446 q=-0.0 size=N/A time=00:19:02.85 bitrate=N/A speed=18.6x    frame=27634 fps=446 q=-0.0 size=N/A time=00:19:12.56 bitrate=N/A speed=18.6x    frame=27858 fps=446 q=-0.0 size=N/A time=00:19:21.91 bitrate=N/A speed=18.6x    frame=28083 fps=446 q=-0.0 size=N/A time=00:19:31.29 bitrate=N/A speed=18.6x    frame=28321 fps=446 q=-0.0 size=N/A time=00:19:41.22 bitrate=N/A speed=18.6x    frame=28555 fps=446 q=-0.0 size=N/A time=00:19:50.98 bitrate=N/A speed=18.6x    frame=28808 fps=447 q=-0.0 size=N/A time=00:20:01.53 bitrate=N/A speed=18.6x    frame=29055 fps=447 q=-0.0 size=N/A time=00:20:11.83 bitrate=N/A speed=18.6x    frame=29249 fps=446 q=-0.0 size=N/A time=00:20:19.92 bitrate=N/A speed=18.6x    frame=29448 fps=446 q=-0.0 size=N/A time=00:20:28.22 bitrate=N/A speed=18.6x    frame=29647 fps=445 q=-0.0 size=N/A time=00:20:36.52 bitrate=N/A speed=18.6x    frame=29865 fps=445 q=-0.0 size=N/A time=00:20:45.61 bitrate=N/A speed=18.6x    frame=30093 fps=445 q=-0.0 size=N/A time=00:20:55.12 bitrate=N/A speed=18.6x    frame=30300 fps=445 q=-0.0 size=N/A time=00:21:03.76 bitrate=N/A speed=18.6x    frame=30498 fps=444 q=-0.0 size=N/A time=00:21:12.02 bitrate=N/A speed=18.5x    frame=30712 fps=444 q=-0.0 size=N/A time=00:21:20.94 bitrate=N/A speed=18.5x    frame=30923 fps=444 q=-0.0 size=N/A time=00:21:29.74 bitrate=N/A speed=18.5x    frame=31135 fps=444 q=-0.0 size=N/A time=00:21:38.58 bitrate=N/A speed=18.5x    frame=31357 fps=444 q=-0.0 size=N/A time=00:21:47.84 bitrate=N/A speed=18.5x    frame=31603 fps=444 q=-0.0 size=N/A time=00:21:58.10 bitrate=N/A speed=18.5x    frame=31851 fps=444 q=-0.0 size=N/A time=00:22:08.45 bitrate=N/A speed=18.5x    frame=32038 fps=444 q=-0.0 size=N/A time=00:22:16.25 bitrate=N/A speed=18.5x    frame=32274 fps=444 q=-0.0 size=N/A time=00:22:26.09 bitrate=N/A speed=18.5x    frame=32529 fps=444 q=-0.0 size=N/A time=00:22:36.73 bitrate=N/A speed=18.5x    frame=32782 fps=444 q=-0.0 size=N/A time=00:22:47.28 bitrate=N/A speed=18.5x    frame=32980 fps=444 q=-0.0 size=N/A time=00:22:55.54 bitrate=N/A speed=18.5x    frame=33112 fps=443 q=-0.0 size=N/A time=00:23:01.04 bitrate=N/A speed=18.5x    frame=33286 fps=442 q=-0.0 size=N/A time=00:23:08.30 bitrate=N/A speed=18.4x    frame=33456 fps=441 q=-0.0 size=N/A time=00:23:15.39 bitrate=N/A speed=18.4x    frame=33664 fps=441 q=-0.0 size=N/A time=00:23:24.06 bitrate=N/A speed=18.4x    frame=33905 fps=441 q=-0.0 size=N/A time=00:23:34.12 bitrate=N/A speed=18.4x    frame=34135 fps=441 q=-0.0 size=N/A time=00:23:43.71 bitrate=N/A speed=18.4x    frame=34309 fps=440 q=-0.0 size=N/A time=00:23:50.97 bitrate=N/A speed=18.4x    frame=34468 fps=439 q=-0.0 size=N/A time=00:23:57.60 bitrate=N/A speed=18.3x    [Parsed_psnr_10 @ 0000018bdb3c7d40] PSNR y:47.675998 u:50.065804 v:50.299608 average:48.361967 min:34.898089 max:inf
[out#0/null @ 0000018bc561c100] video:14858KiB audio:270432KiB subtitle:0KiB other streams:0KiB global headers:0KiB muxing overhead: unknown
frame=34578 fps=440 q=-0.0 Lsize=N/A time=00:24:02.19 bitrate=N/A speed=18.3x    
